<mxfile host="65bd71144e" pages="1">
    <diagram id="tdGZ8Fy5bz3L3z832wV6" name="第 1 页">
        <mxGraphModel dx="1607" dy="1969" grid="1" gridSize="10" guides="1" tooltips="1" connect="1" arrows="1" fold="1" page="1" pageScale="1" pageWidth="827" pageHeight="1169" background="#FDFFF5" math="0" shadow="0">
            <root>
                <mxCell id="0"/>
                <mxCell id="1" parent="0"/>
                <mxCell id="10" value="Node" style="swimlane;fontStyle=1;align=center;verticalAlign=top;childLayout=stackLayout;horizontal=1;startSize=26;horizontalStack=0;resizeParent=1;resizeParentMax=0;resizeLast=0;collapsible=1;marginBottom=0;fillColor=#f5f5f5;strokeColor=#666666;fontColor=#333333;" parent="1" vertex="1">
                    <mxGeometry x="358" y="141" width="360" height="252" as="geometry"/>
                </mxCell>
                <mxCell id="11" value="- symbol: string&#10;- parent: shared_ptr&lt; Node &gt;&#10;- child: shared_ptr&lt; Node &gt;&#10;- sibling: shared_ptr&lt; Node &gt;" style="text;align=left;verticalAlign=top;spacingLeft=4;spacingRight=4;overflow=hidden;rotatable=0;points=[[0,0.5],[1,0.5]];portConstraint=eastwest;fillColor=#f5f5f5;strokeColor=#666666;fontColor=#333333;" parent="10" vertex="1">
                    <mxGeometry y="26" width="360" height="104" as="geometry"/>
                </mxCell>
                <mxCell id="13" value="+ createParent(shared_ptr&lt; Node &gt; node): shared_ptr&lt; Node &gt;&#10;+ createChild( shared_ptr&lt; Node &gt; node ): shared_ptr&lt; Node &gt;&#10;+ createSibling( shared_ptr&lt; Node &gt; node ): shared_ptr&lt; Node &gt;&#10;+ getChild(): shared_ptr&lt; Node &gt; &#10;+ getSibling (): shared_ptr&lt; Node &gt;&#10;+ getParent (): shared_ptr&lt; Node &gt;&#10;+ printSymbol(): void" style="text;align=left;verticalAlign=top;spacingLeft=4;spacingRight=4;overflow=hidden;rotatable=0;points=[[0,0.5],[1,0.5]];portConstraint=eastwest;fillColor=#f5f5f5;strokeColor=#666666;fontColor=#333333;" parent="10" vertex="1">
                    <mxGeometry y="130" width="360" height="122" as="geometry"/>
                </mxCell>
                <mxCell id="14" style="edgeStyle=orthogonalEdgeStyle;rounded=0;orthogonalLoop=1;jettySize=auto;html=1;exitX=0;exitY=0.5;exitDx=0;exitDy=0;entryX=1;entryY=0.5;entryDx=0;entryDy=0;endArrow=diamondThin;endFill=1;fillColor=#f5f5f5;strokeColor=#666666;" parent="1" source="11" target="26" edge="1">
                    <mxGeometry relative="1" as="geometry">
                        <mxPoint x="250" y="200" as="targetPoint"/>
                    </mxGeometry>
                </mxCell>
                <mxCell id="16" value="Grammar" style="swimlane;fontStyle=1;align=center;verticalAlign=top;childLayout=stackLayout;horizontal=1;startSize=26;horizontalStack=0;resizeParent=1;resizeParentMax=0;resizeLast=0;collapsible=1;marginBottom=0;fillColor=#f5f5f5;strokeColor=#666666;fontColor=#333333;" parent="1" vertex="1">
                    <mxGeometry x="-140" y="-250" width="360" height="282" as="geometry"/>
                </mxCell>
                <mxCell id="17" value="# nonTerminalNum: int&#10;# terminalNum: int&#10;# rulesNum: int&#10;# startSymbol: string&#10;# nonTerminals: set&lt;string&gt;&#10;# terminals: set&lt;string&gt;&#10;# rules: multimap&lt;string, pair&lt;vector&lt;string&gt;, int&gt; &gt;&#10;# firstSet: map&lt;string, set&lt;string&gt; &gt;" style="text;align=left;verticalAlign=top;spacingLeft=4;spacingRight=4;overflow=hidden;rotatable=0;points=[[0,0.5],[1,0.5]];portConstraint=eastwest;fillColor=#f5f5f5;strokeColor=#666666;fontColor=#333333;" parent="16" vertex="1">
                    <mxGeometry y="26" width="360" height="154" as="geometry"/>
                </mxCell>
                <mxCell id="19" value="+  Grammar()&#10;+ isNonterminal(const string&amp; s) const: bool&#10;+ findRulesScope( const string &amp;symbol ) const: pair&lt; RULE::const_iterator, RULE::const_iterator &gt;&#10;+ getAllFirstSet(): void&#10;+ getFirstSet( const string &amp; symbol): set&lt; string &gt; &amp;&#10;+ calFirstSet( const string &amp; symbol ): set&lt; string &gt;" style="text;align=left;verticalAlign=top;spacingLeft=4;spacingRight=4;overflow=hidden;rotatable=0;points=[[0,0.5],[1,0.5]];portConstraint=eastwest;fillColor=#f5f5f5;strokeColor=#666666;fontColor=#333333;" parent="16" vertex="1">
                    <mxGeometry y="180" width="360" height="102" as="geometry"/>
                </mxCell>
                <mxCell id="29" style="edgeStyle=orthogonalEdgeStyle;rounded=0;orthogonalLoop=1;jettySize=auto;html=1;exitX=0.5;exitY=0;exitDx=0;exitDy=0;entryX=0.497;entryY=0.99;entryDx=0;entryDy=0;entryPerimeter=0;endArrow=block;endFill=0;fillColor=#f5f5f5;strokeColor=#666666;" parent="1" source="25" target="19" edge="1">
                    <mxGeometry relative="1" as="geometry">
                        <Array as="points">
                            <mxPoint y="180"/>
                            <mxPoint y="106"/>
                            <mxPoint x="39" y="106"/>
                        </Array>
                    </mxGeometry>
                </mxCell>
                <mxCell id="25" value="GrammarLR1" style="swimlane;fontStyle=1;align=center;verticalAlign=top;childLayout=stackLayout;horizontal=1;startSize=26;horizontalStack=0;resizeParent=1;resizeParentMax=0;resizeLast=0;collapsible=1;marginBottom=0;fillColor=#f5f5f5;strokeColor=#666666;fontColor=#333333;" parent="1" vertex="1">
                    <mxGeometry x="-140" y="180" width="340" height="220" as="geometry"/>
                </mxCell>
                <mxCell id="26" value="-  itemsSetFamily: ITEMFAMILY&#10;- gotoTable: map&lt; pair&lt; int, string &gt;, int &gt; &#10;- isLR1: bool&#10;- root: shared_ptr&lt; Node &gt;" style="text;align=left;verticalAlign=top;spacingLeft=4;spacingRight=4;overflow=hidden;rotatable=0;points=[[0,0.5],[1,0.5]];portConstraint=eastwest;fillColor=#f5f5f5;strokeColor=#666666;fontColor=#333333;" parent="25" vertex="1">
                    <mxGeometry y="26" width="340" height="94" as="geometry"/>
                </mxCell>
                <mxCell id="28" value="+ printACTION(ostream &amp;os) const: void&#10;+ printGOTO(ostream &amp;os) const: void&#10;+ printItemsFamily(ostream &amp;os) const: void&#10;+ parser(vector&lt; string &gt; &amp;input): void&#10;+ DFS( const shared_ptr&lt;Node&gt;&amp; node, int depth=1) void&#10;+ printAST(vector&lt; string &gt; &amp;input): void" style="text;align=left;verticalAlign=top;spacingLeft=4;spacingRight=4;overflow=hidden;rotatable=0;points=[[0,0.5],[1,0.5]];portConstraint=eastwest;fillColor=#f5f5f5;strokeColor=#666666;fontColor=#333333;" parent="25" vertex="1">
                    <mxGeometry y="120" width="340" height="100" as="geometry"/>
                </mxCell>
                <mxCell id="30" value="1..1" style="text;html=1;resizable=0;points=[];autosize=1;align=left;verticalAlign=top;spacingTop=-4;fillColor=#f5f5f5;strokeColor=#666666;fontColor=#333333;" parent="1" vertex="1">
                    <mxGeometry x="220" y="257" width="40" height="20" as="geometry"/>
                </mxCell>
                <mxCell id="31" value="1..*" style="text;html=1;resizable=0;points=[];autosize=1;align=left;verticalAlign=top;spacingTop=-4;fillColor=#f5f5f5;strokeColor=#666666;fontColor=#333333;" parent="1" vertex="1">
                    <mxGeometry x="320" y="230" width="30" height="20" as="geometry"/>
                </mxCell>
                <mxCell id="32" value="ItemsSet" style="swimlane;fontStyle=1;align=center;verticalAlign=top;childLayout=stackLayout;horizontal=1;startSize=26;horizontalStack=0;resizeParent=1;resizeParentMax=0;resizeLast=0;collapsible=1;marginBottom=0;fillColor=#f5f5f5;strokeColor=#666666;fontColor=#333333;" parent="1" vertex="1">
                    <mxGeometry x="340" y="-350" width="750" height="192" as="geometry"/>
                </mxCell>
                <mxCell id="33" value="+ kernels: vector&lt;Item&gt;&#10;+ nonKernels: vector&lt;Item&gt;" style="text;strokeColor=#666666;fillColor=#f5f5f5;align=left;verticalAlign=top;spacingLeft=4;spacingRight=4;overflow=hidden;rotatable=0;points=[[0,0.5],[1,0.5]];portConstraint=eastwest;fontColor=#333333;" parent="32" vertex="1">
                    <mxGeometry y="26" width="750" height="54" as="geometry"/>
                </mxCell>
                <mxCell id="35" value="+ getFIrst(const string &amp;symbol, const vector&lt; string &gt; &amp;body, int pos, Grammar *g, const string &amp;lookahead): set&lt; string &gt; &#10;+ closure(Grammar *g): void&#10;+ isAllToBeReduced() const: bool &#10;+ isToBeReduced() const: bool&#10;+ getKernel() const: const Item &amp;&#10;+ getNonKernel() const: const ITEMS &amp;&#10;+ operator==(const ItemsSet &amp; other) const" style="text;strokeColor=#666666;fillColor=#f5f5f5;align=left;verticalAlign=top;spacingLeft=4;spacingRight=4;overflow=hidden;rotatable=0;points=[[0,0.5],[1,0.5]];portConstraint=eastwest;fontColor=#333333;" parent="32" vertex="1">
                    <mxGeometry y="80" width="750" height="112" as="geometry"/>
                </mxCell>
                <mxCell id="40" style="edgeStyle=orthogonalEdgeStyle;rounded=0;orthogonalLoop=1;jettySize=auto;html=1;exitX=0.5;exitY=0;exitDx=0;exitDy=0;entryX=0.475;entryY=0.962;entryDx=0;entryDy=0;entryPerimeter=0;endArrow=diamondThin;endFill=1;fillColor=#f5f5f5;strokeColor=#666666;" parent="1" source="36" target="35" edge="1">
                    <mxGeometry relative="1" as="geometry">
                        <Array as="points">
                            <mxPoint x="680" y="-60"/>
                            <mxPoint x="680" y="-130"/>
                            <mxPoint x="696" y="-130"/>
                        </Array>
                    </mxGeometry>
                </mxCell>
                <mxCell id="36" value="Item" style="swimlane;fontStyle=1;align=center;verticalAlign=top;childLayout=stackLayout;horizontal=1;startSize=26;horizontalStack=0;resizeParent=1;resizeParentMax=0;resizeLast=0;collapsible=1;marginBottom=0;fillColor=#f5f5f5;strokeColor=#666666;fontColor=#333333;" parent="1" vertex="1">
                    <mxGeometry x="450" y="-60" width="260" height="152" as="geometry"/>
                </mxCell>
                <mxCell id="37" value="+ body: vector&lt; string &gt; &#10;+ dosPos: int&#10;+ symbol: string&#10;+ lookahead: string" style="text;align=left;verticalAlign=top;spacingLeft=4;spacingRight=4;overflow=hidden;rotatable=0;points=[[0,0.5],[1,0.5]];portConstraint=eastwest;fillColor=#f5f5f5;strokeColor=#666666;fontColor=#333333;" parent="36" vertex="1">
                    <mxGeometry y="26" width="260" height="84" as="geometry"/>
                </mxCell>
                <mxCell id="39" value="+ operator==(const Item &amp;other): type" style="text;align=left;verticalAlign=top;spacingLeft=4;spacingRight=4;overflow=hidden;rotatable=0;points=[[0,0.5],[1,0.5]];portConstraint=eastwest;fillColor=#f5f5f5;strokeColor=#666666;fontColor=#333333;" parent="36" vertex="1">
                    <mxGeometry y="110" width="260" height="42" as="geometry"/>
                </mxCell>
                <mxCell id="42" style="edgeStyle=orthogonalEdgeStyle;rounded=0;orthogonalLoop=1;jettySize=auto;html=1;exitX=0;exitY=0.5;exitDx=0;exitDy=0;entryX=1;entryY=0.5;entryDx=0;entryDy=0;endArrow=diamondThin;endFill=1;fillColor=#f5f5f5;strokeColor=#666666;" parent="1" source="33" target="17" edge="1">
                    <mxGeometry relative="1" as="geometry">
                        <Array as="points">
                            <mxPoint x="290" y="-280"/>
                            <mxPoint x="260" y="-280"/>
                            <mxPoint x="260" y="-147"/>
                        </Array>
                    </mxGeometry>
                </mxCell>
                <mxCell id="43" value="&lt;font color=&quot;#1a1a1a&quot;&gt;1...1&lt;/font&gt;" style="text;html=1;align=center;verticalAlign=middle;resizable=0;points=[];autosize=1;strokeColor=none;" parent="1" vertex="1">
                    <mxGeometry x="220" y="-170" width="40" height="20" as="geometry"/>
                </mxCell>
                <mxCell id="44" value="&lt;font color=&quot;#1a1a1a&quot;&gt;1..*&lt;/font&gt;" style="text;html=1;align=center;verticalAlign=middle;resizable=0;points=[];autosize=1;strokeColor=none;" parent="1" vertex="1">
                    <mxGeometry x="300" y="-320" width="30" height="20" as="geometry"/>
                </mxCell>
                <mxCell id="45" value="&lt;font color=&quot;#1a1a1a&quot;&gt;1...*&lt;/font&gt;" style="text;html=1;align=center;verticalAlign=middle;resizable=0;points=[];autosize=1;strokeColor=none;" vertex="1" parent="1">
                    <mxGeometry x="690" y="-150" width="40" height="20" as="geometry"/>
                </mxCell>
                <mxCell id="46" value="&lt;font color=&quot;#1a1a1a&quot;&gt;1...1&lt;/font&gt;" style="text;html=1;align=center;verticalAlign=middle;resizable=0;points=[];autosize=1;strokeColor=none;" vertex="1" parent="1">
                    <mxGeometry x="670" y="-90" width="40" height="20" as="geometry"/>
                </mxCell>
            </root>
        </mxGraphModel>
    </diagram>
</mxfile>